/* XPM */
static char *_b6c01c9a2994e3c9362749d46cef1a1bHTTnEu3QuNF6pYt[] = {
/* columns rows colors chars-per-pixel */
"63 64 98 2 ",
"   c #231307",
".  c #1F0000",
"X  c #0F0000",
"o  c black",
"O  c #270000",
"+  c #170000",
"@  c #170F0B",
"#  c #1B1300",
"$  c #170B0B",
"%  c #2B1F00",
"&  c #2F170B",
"*  c #231313",
"=  c #131300",
"-  c #0F0B07",
";  c #1B1B00",
":  c #0B0B00",
">  c #5F4B3B",
",  c #4B4B4B",
"<  c #475B4F",
"1  c #533F33",
"2  c #3F2F17",
"3  c #3F3F3F",
"4  c #4B2F37",
"5  c #2F4337",
"6  c #533723",
"7  c #43272F",
"8  c #433327",
"9  c #4F6357",
"0  c #374B3F",
"q  c #2F2F2F",
"w  c #1F170B",
"e  c #2F2313",
"r  c #372B1F",
"t  c #633F2B",
"y  c #4B4B0B",
"u  c #47331B",
"i  c #372B17",
"p  c #2B230F",
"a  c #1F2B1F",
"s  c #2B3B2F",
"d  c #371F23",
"f  c #3B1F0F",
"g  c #271F17",
"h  c #1B130F",
"j  c #271B0F",
"k  c #233327",
"l  c #2B171B",
"z  c #1B1B27",
"x  c #372B13",
"c  c gray12",
"v  c #172317",
"b  c #0B0700",
"n  c #1B0F00",
"m  c #6F4733",
"M  c #6B5747",
"N  c #3F3F57",
"B  c #3F5347",
"V  c gray6",
"C  c #4B2313",
"Z  c #2F2F3F",
"A  c #572B17",
"S  c #3B2B00",
"D  c #4B371B",
"F  c #373707",
"G  c #4B0700",
"H  c #372F00",
"J  c #7B6353",
"K  c #2B2B07",
"L  c #13131B",
"P  c #2F171B",
"I  c #47232B",
"U  c #0F0707",
"Y  c #2B2B4F",
"T  c #3B1F23",
"R  c #2F2F5F",
"E  c #0F1B13",
"W  c #0B130B",
"Q  c #2F2B00",
"!  c #5F0700",
"~  c #37374B",
"^  c #2B0000",
"/  c #3F3F07",
"(  c #370000",
")  c #533B1B",
"_  c #272733",
"`  c #5F3F4B",
"'  c #433700",
"]  c #070700",
"[  c #3F0000",
"{  c #2F0000",
"}  c #23233F",
"|  c #070B07",
" . c #677B6F",
".. c #2F2F07",
"X. c #232300",
"o. c #1B1B2F",
"O. c #0B0B0F",
"+. c white",
/* pixels */
"  . X o O + @   # $ $ # % & *   + @ $ =   $   . + $ - % & & O           ; $ $ : = # +     = -   + . = = - - % - -   = O $   ; ",
"> , > < 1 1 1 > 2 1 3 3 4 1 1 5 6 > 1 7 5 8 6 9 1 6 0 q 6 2 8 w 8 8 8 5 e 6 8 1 0 1 6 2 2 1 4 r 8 r 1 6 2 6 1 1 t y 5 1 1 3 6 ",
"q q u i 8 3 i 8 r 3 q p r a r 8 r   s p & p & r d u & f & g 1 h r g g g   j r i i k q l   p z g q f p * x f x r p p s r q r 1 ",
"3 8 r & g g     e e h   c g e c g c g g c c v h b w w g h i 8 @ k r j w * w j v h n @   h   g   h h w e g g a   @ w p e p k 4 ",
"r r 8 1 1 8 8 6 8 q 1 8 8 8 1 m 1 > t > > 6 > M t > t 1 w l 6 g r j 1 1 > > , , 9 M > > > 5 3 1 2 2 > N 8 > > > > 1 > B w 8 , ",
"e V j i e e f r 8 2 r r i g f C C 8 2 8 Z f 8 8 u 2 A 1 @ p 2 $ & h 3 q i r 8 r C r r r 8 r r r 8 8 u r 5 8 8 r f s i 8 e 8 1 ",
"& - e O q e e r e C f r 8 2 r 8 i f f f r S 2 u A D u t * j 1 h e - 8 u 8 8 3 8 8 8 f c x 8 r i f F e r u 8 e r 8 i a q q s 1 ",
"k @ h w e r e i r q j 3 2 r f C f f C 2 f f & G 2 u k t   q 1 g e - 8 8 u 8 8 3 e & r H r s r q 8 u r 8 r 2 r r f g 8 J g 8 > ",
"c V K g e & r s & e r r   2 2 r 8 x C r C C f A 2 i r > ; j 8 @   L u 8 r 8 u r r 8 8 r e s 8 S 8 g e 2 8 u u s r g & x g r 6 ",
"r @ j j v e 8 s r j e i f 2 2 i 2 e 8 8 C C f e i f u 6   g 1 @ P @ 8 0 8 r I 1 S D u 8 2 q 8 d r r 8 f s 2 8 8 8 r a 8 j r 1 ",
"e @ w w k 2 % f j 3 r D f & r 8 u C 8 u 8 f r C u f f t   p 3   r U 8 u 8 i 8 1 u 1 e D 8 3 s q 8 Y q r f u r 8 r r g 6 e p B ",
"c @ r w j & r r 8 8 & & T 2 e r f f C u & 2 u C 3 & T > w f 1 h j - 8 3 2 u 2 R C 2 q r 8 r q r d q r 8 u 2 e e p 8 e B q r 4 ",
"r @ e r i r i 8 f r x i T e & 8 j # 2 C r u 8 u r C C t g i 1 c r @ C f 8 D x 2 8 8 8 8 7 8 q 8 e i f r q g c r e C 8 1 l r 6 ",
"r @ j n & a e e r r r 8 f   C f 8 q r C u 2 2 e u i C 1 r f < c i V i T 2 2 8 8 r C 6 C 8 1 8 8 i 2 i i e e r r x r q 8 x 8 M ",
"f w @ @ @ @ @ @ V @ - V V V V V @ E L W $ $ @ @ V @ j j k r 1 $ e h @ @ U - U @ W b V @ @ - - U - - - U U + @ b X U @ & 8 2 > ",
"2 f e   e e e q x e i e r r s e c r e j c P e r e f f r 8 8 > g r e & r c e & Q j w k e e e a c   & j & e     j j e & 2 8 ! 1 ",
"g w g g g h w g * h w v h h h c c c g g g h E V w   @ = $ g     h w g h w       h @ @ h @ $ + - @   - ;   @ ; n   h w g j g g ",
"B > 3 3 > t 3 1 8 B > > 1 1 1 w 6 1 5 1 1 1 8 8 1 8 6 ~ 2 1 1 8 t 8 1 6 8 2 8 1 8 > 1 t > 1 t & > 1 M > 1 , > t , 8 1 > > > t ",
"8 3 q k q i 8 s 8 l g 8 i r > h e r f r r p g f   & 8 i r & f r q p f f & 2 i i 1 u 2 D 8 r > j 3 C P r p 3 i d 3 8 r % 8 3 r ",
"g e e e e ^ z * g p   e r 1 1   & q p w h e e p g h p e g w +     j g   p   g e e g r e f 3 M j T r r r q q e g c c c e a   c ",
"1 2 6 t 1 > > 4 1 t t t   u 6 g 2 & > > M 1 6 1 6 > t > 8 > > , B > > 8 8 7 3 i 0 8 > 3 & 3 >   8 r 6 6 p 2 8 1 1 > 1 t > 1 1 ",
"8 r f 8 & 8 i 8 r 6 u t g i > w e # C i i i f r 8 r r d 2 3 8 Z 8 8 2 e 2 2 f r r q r 1 r D , * s @ f 2 C D 8 r 8 f 8 r u 8 e ",
"2 8 i 2 D , u p f / & t e q 6 & C X 6 0 r r i 8 & i 3 8 r C i r 8 8 i r q 8 8 g e a e > e 1 , g q h g f   f C f i 4 & r 8 d i ",
"8 3 8 f r f 2 C C f D 1 g C 6   e @ 6 2 8 3 8 r 8 3 q p u g 8 r 8 8 8 2 f p f f i u r 8 p C > g q - f f f e r f e x & l j e A ",
"2 e f r i C 2 r 2 8 2 t w f 1   e - u f 8 r e f 8 8 3 2 1 8 Z 2 8 8 r 8 8 u ( r r k k 1 p 8 M   e ; f 1 r i e e g r f r & r & ",
"8 8 8 8 8 r f 8 D 8 6 > & f 1 w & @ r f r r 2 i 1 8 u C 8 8 f u d f r 3 f 8 f q ) 2 r 4 e f > c r @ D i g j f 8 e % 8 2 K 8 r ",
"8 x f C r r q C f f S t e f 1 $ x - 2 r r 8 8 8 6 D r 2 C D r f d 8 r 8 f r e r e i e 8 e 1 M   r @ e r g # % 8 f i f i r r 8 ",
"f 3 u g r f 2 u f f f M e C 1 g * V 8 r r f s i C 3 q 8 e 8 8 r 2 f 8 r 8 & e r r r g 8 e 8 M w x @ & e 8 i e & r r j e i 2 r ",
"e 8 i r r & j 2 e 2 8 t x r 6 h & V f 8 8 S 8 8 G   r 2 8 8 8 u f f q r r P 2 e 8 k r 8 r 8 > g r V j & r ) f r & f e f r f f ",
"2 f u & f i s r 8 f C t e _ 2 @ f @ e 8 2 1 8 f u 8 8 i 1 C x S f 8 r r r i e f r r e 8 f 3 1   r @ e 8 e & x 2 f & i f & i 8 ",
"@ $ @ @ @ @ @ V h @ * f a q > h & @ - @ - @ - U U U @ - $ @ - - @ - @ = @ @ - - - @ * f 2 8 >   r @ h @ @ V @ @ @ @ @ @ @ @ @ ",
"e j e r q q r r q q r 8 s q >   r r e & x r e r j c c j j r r r e & r Q   f P & e 8 e 8 8 f ` g f r r q r i e r c r r r 2 e k ",
"$ $ n h h g g g g g g @ @ w @ c h @ @ $ E   w $ E w - $ w   w w w c w O   w c $ h   @ g j   g c g g g   $ g   * c E g g h c v ",
"1 t 1 M > t , 1 4 > , 3 > 4 m 1 3 1 8 > 1 M > > 1 > 3 4 t 1 > h 1 1 1 4 1 8 5 1 > 8 1 6 7 1 8 1 > t 1 6 6 6 t 6 t t 1 > t t 1 ",
"3 8 r 8 u 8 8 d 3 3 q r 8 8 D r 7 q & 8 p i D 8 i x 3 f r d 2 v 2 e r s r & f r r r r i f i Z r 8 r & C C 2 f C 8 r 3 C f 8 , ",
"8 8 r g z c g r e r p g g a   q p g * &   c g K j r c c v q 1 h r d r g   e w c g w   g c * c g   e       p j e g l   e r 3 t ",
"1 8 8 2 2 8 2 1 ~ 8 r 8 2 8 2 1 1 6 1 6 t 2 6 8 B > 2 1 a i 1 g r e > 6 1 1 8 > M > 3 1 r 4 1 8 , 1 > 3 0 6 1 B 8 5 3 8 c 8 > ",
"8 c Q j e r P r & h &     w e * j & & % & j & g r & i 1 a r 8 ; j h f i c q r e D c r r 8 8 e f r q 8 r q 8 k & g n & 1 p 8 t ",
"e V f   & r p e i c p r i f f c g &   n r e r r 8 r r > p r 8 c % - q q r r k i r ' r 8 r r E r r r 0 r i r r r i & 2 8 e u 1 ",
"q h a g & &   g _ x e p e g e r f e f s & f f & i l & > e i r O e ] & e r 8 s s e r 8 r   r e 8 8 2 d 8 r r a 8 q e w e & 8 > ",
"r $ r r 2 & f e f i / i r P d e f e ^ &   i x & r 3 C 1 h r 6 V v - r r 8 3 r q r r e i r 2 r f r a 3 g s & g e u g f 4 e f > ",
"r @ C [ 8 e j & f e & j r f r g & x f r j e e r r d r 1 * c r - c U e 8 r r r r r 8 g r k q 8 r 2 8 s r x q 2 i f j r 2   S > ",
"e V f e & r g e e & g P 8 e e k r O   a & r r e r 3 s 1 v d 8 h s - S 8 8 5 i r r i j j e r 8 q d r s 8 8 f e e p p & r g i > ",
"j @ e i f x r 8 w & 8 r G r a e q j r e e { & } f f i 1 e r B @ n @ 8 3 s 8 8 8 s & k r r q 8 r r 3 r r q 8 1 i 3 f r 2 g f , ",
"e - f K e r 2 e p e & g & G i w = & j e i r r i 3 i 3 4 v d 1 $ j - q 8 2 r q r r r 8 r 5 r r q s d f q i r j g f 8 q 1 e 8 > ",
"r @ r i r r f } w p e e * e f e & r r e & f & e e f r 1 c e 1 $ c @ 8 8 x 8 x c i i r 1 8 3 8 r 8 8 s 8 e e v r c i 8 1 D 2 m ",
"r * - @ h V @ V $ $ @ @ @ @ @ L - - - - @ V @ @ @ - h j * l 3 h j - - | U - - - - - $ @ - - U @ $ @ $ U @ @ @ @ $ @ $ e 2 i t ",
"r r r r q x r r e j c r P j   e & q c e r x x q c j c k e f r - j j j e v   j c 0 q e & x q e j e = x x & & 2 8 r x q 2 f e 3 ",
"g   w w $ w w g j w g h h - h h g g h E w w c @   h @ @ g E w @ @ - @   h   = $ g @   @   h h   h h $ w g w         . w   h h ",
"1 8 1 6 1 6 2 1 t t 1 1 > 1 > g 1 6 > t 1 6 1 > > 1 M 1 1 1 1 8 1 1 1 4 > , > , 2 1 s 8 > 8 1 @ 8 t 8 8 D 1 1 6 > 2 1 6 8 > > ",
"i p r f 1 8 S i 8 & f 2 8 8 2 j q & f d 8 8 ) r r i 8 8 8 r 8 q r 8 8 8 8 C 8 i r j g r i 8 1 * k x & G p r 8 8 8 p f &   i r ",
"e : l w e e z f l O & p r 8 M g 6 f r j j v   j q p P   * p p c c g @ g j h w n v * h c g c 1 h e % p j   a   e g e   e p g e ",
"3 3 6 1 1 3 8 1 4 6 1 > g 8 > @ 8 f 1 8 q B > 4 > r 8 0 1 3 1 1 2 1 6 1 6 6 > 4 > 1 2 3 j r 8 $ a e > , 1 M > 1 > t  .1 , > 1 ",
"8 2 e i 8 8 8 8 r I 1 1 p 8 t g f w e t i 2 8 C r r e G & r d   % p C f f r f i 8 u C > w   0 g q - 8 6 2 u 8 8 u 6 r B 8 r q ",
"5 5 e g 8 e e e q 8 8 , p i 6 h w @ & g i e c f q f i e i 8 r g i r & f C 8 5 i 3 r C 1 l r 1 h   - 3 i q i 5 P 2 q 3 1 r s 8 ",
"8 i g 8 r k 5 q P 8 ^ t & 8 t j r $ q j 8 f % s G f a { g C A ' & p x f f f r r 8 2 8 6 c s 8 @ E - 3 8 8 8 3 1 8 8 , 1 8 1 q ",
"q r q r r j s r 8 8 8 > i 8 4 j P - 8 a q q C 8 e e & & w C & r r & e n e e S & C 2 u , w q r @ v - r 1 8 r 4 T 3 8 r r 1 8 s ",
"5 s   c e r 8 2 8 8 8 1 g 2 > g r @ e s 2 e e & f ..e e i 8 r & e a 2 8 C C D ~ 0 8 c > h q 8 h   @ 1 D 8 8 8 q 3 8 2 f i i 8 ",
"e f 8 r i 8 g f ' 8 r 8 & f > p T @ 8 f s & & i C c r f r j e 8 C 8 2 e f r 1 u 4 6 6 , E 8 1 h r @ 8 R q 1 8 8 8 8 q q s a e ",
"8 & q 8 8 8 d r 8 C 3 9 e f 1   2 @ c e 8 r i f & & e e s X.8 8 i C q C 8 r f & 3 C 8 t g p r $ e b 2 e 8 2 3 3 8 D 6 r 3 q r ",
"r r i s q 8 r 2 i 4 3 , l 6 > & q @ r f f s e f n & e   d 2 P x u S i u f f 2 D u u 1 > j i 8 c o.- 6 u u d r Z 8 8 8 C 3 s 8 ",
"i r & 1 r i 8 8 8 8 8 6 2 G > h & @ e r p f x f i & 2 & e r i h 2 i S u q 2 C f 8 8 3 > w & 2 w j @ 3 8 3 2 8 8 ~ r 8 g e r 3 ",
"U : U - U - @ - @ = @ C u 8 t g x * @ - @ @ V @ V @ @ @ @ @ - V @ @ @ - @ - - U U - h X.j e 1 @   ] - - O.@ @ - U : @ @ @ - - ",
"e i e j e j r e e j e 8 x 8 > j i e q r r r j e c c r c c j e e e P j j E * w e e e j f j i 1 @ k v j f e e & * e e j j @ h e "
};
