/* XPM */
static char *_1202560270f4d09f0e3c31f4f509821pmaYwkVNMmVQlny1[] = {
/* columns rows colors chars-per-pixel */
"61 64 83 1 ",
"  c #231307",
". c #1B1B00",
"X c #170F0B",
"o c #170000",
"O c #131300",
"+ c #2B1F00",
"@ c #170B0B",
"# c #1F0000",
"$ c #070700",
"% c #270000",
"& c #0F0B07",
"* c #1B1300",
"= c #2F2313",
"- c #2F170B",
"; c #0F0000",
": c #1F170B",
"> c #232300",
", c #2B230F",
"< c #271B0F",
"1 c #271F17",
"2 c #1F2B1F",
"3 c gray12",
"4 c #1B130F",
"5 c #0F1B13",
"6 c #13131B",
"7 c #2F2F2F",
"8 c #433327",
"9 c #2B3B2F",
"0 c #2F4337",
"q c #47331B",
"w c #172317",
"e c #3B1F0F",
"r c #372B13",
"t c #533B1B",
"y c #533F33",
"u c #231313",
"i c #372B1F",
"p c #233327",
"a c #433700",
"s c #3F5347",
"d c #3F3F3F",
"f c #3F2F17",
"g c #4B2313",
"h c #23233F",
"j c #372B17",
"k c #374B3F",
"l c #272733",
"z c #4B4B4B",
"x c #37374B",
"c c #1B0F00",
"v c #572B17",
"b c #5F4B3B",
"n c #371F23",
"m c #5B431F",
"M c #2B171B",
"N c #3B1F23",
"B c #2F171B",
"V c #43272F",
"C c #2F2F07",
"Z c #2B2B07",
"A c #0B0B00",
"S c #0B130B",
"D c #533723",
"F c #4B371B",
"G c #2F2F5F",
"H c #3F3F57",
"J c #2F2F3F",
"K c #3B2B00",
"L c #632F1F",
"P c #1B1B2F",
"I c #4B2F37",
"U c gray6",
"Y c #372F00",
"T c #2F2B00",
"R c #5B5B5B",
"E c #475B4F",
"W c #4B3700",
"Q c #373707",
"! c #2B2B4F",
"~ c #3F3F07",
"^ c #2F0000",
"/ c #5B4700",
"( c white",
/* pixels */
" .Xo...O  +. @#o$$o% &@.* +. += -X+-&O;@:@  ;& * +  > &@& , ,",
":<1:<<2<:3<::X< @4<:41< 34X*::@X<:<& <:5@44.46:X:<<2<543<<4<4",
"::7788900q11ww:Xer0ty<=1 y3<1-1uy119i# w-88=pi8y::3<8qa70s=22",
"1X8iidii7y0=d-8<<=iif11fet8iXud8gi3<p:8,<% h==jg1X:=77809ykdk",
":<277=ed11:d=87iijj788=w=1j1<, 1 e=X.<41=i1=i-i8:<:i8878iipi8",
"l 8i889z11w=3ji=1,9289ijii=hX:<<41<1:i1w r:<,=ifl i88888j9r31",
"13dd8dx311i=2i812ii1iij=<1u82Xpi=,= :,:<<e=c <ev13<8jqi7i=i=7",
"p:0i770bkn27iffi8888i==87pja1:9i1=p7 =<=i <<1i=mp:<ijj=-i2r9i",
"7:id0d987i0wj<1, 8ef1i8i==-f81<i1-cX1=c>+1,+-==f7:ld8j9i8ii8i",
"=<87787pird1<778ji=j=i3i1=118==h<ji<j1=,,+:i=8i8=<<f7iy8idi8d",
",1ii7dp27=dsy118ji8i,i=ii11ec-ii1<=i7,==-i=jd=18,11idjMi<diNd",
"8<7=i8787-l1ii=888if+7,<w88ji<i8i1cre=i-i,ii8i=f8<l8Bi88ddfi7",
"8<in77<ip71jiri8-8=ije=147818:1p=2i=-j=i=-8n8j+88<1e888diy8ii",
"= 7dij,j887iiNdii=8jjr1yjj8jii1+<jnX+<r==iej88q-= lV9=88f888f",
"8188091w71<1788d87,qf +1j13,7=j==ii1,i<=ii9=dijy81l8dydj7=91i",
"i<7=7=4ii29718c8ir=e=82:i<>p-=1 3rfC<<Z,=-ii8j88i<<id=d887dd8",
"112=31311X21=32=X:1:1:153w<=44*XX, 11 :A4:>4-1=:11i,1=17=1717",
"<=X&5X@XSX12<X45:<<:<:13<< X< < <=3<1<1l1<<i 1<1<3<4<<1:2<113",
"g:3i0jXXpD F:9i8=<i8FFy88=8gt-=gg:1iidyy7qybFb<88d7dyG72=8i8y",
"jc94 8844jfyy8< ij1ij<rm jqjd-n8jcA* 88difjHfqdi8iiin78k8j1<<",
"r<i<3412=1=8,i=ji= 8:Ojmy888ifqdr<=iierj78=j88887i781==17141<",
"e<i:2i4c 311ii=8- reydiffir,8=e=e<iys8jijj88ir8f8d88=jj=<,ijr",
"8:721:4&X=111,8j,r-8iii<jji8rj+f8:=y8iji8didrfp8if7J=1<,=7i0i",
"=X4Sfq882<<7sdiridiwiAjj==88ij&r=X3d=877di88=17dM<-jed718fjd7",
"q:tF4X<=if: 8,j=j1i,ii<j8refj=-vq:<8i,rr-jidii7dyXii8iipi=p1r",
"-:jqjj<1:1j,7 i,,i7=iwi=i=+iejjq-:=yf=8fjqF8ijdiy8=,=j118d7k ",
"i=ji2r -,ii881= cii=j<i,y8Kf8 t*i= 87<=i8yyj7i787i8pii988j8qy",
"g ii1 =1 9j8i8=qji8i8Aj18ilqn-KLg l8y=7=j=ridiN-Mrjp7i:2j8:*0",
"+<1u2i+-$ ,ii8=88ii77<=fj88Bjjif+<1,9f8yyi=i=8i8=880988F4ikc2",
" *283X,i888i8=8i881i91r7 8=8i8iq *1ijjNjje=98innfd7V88j8qiti2",
"-<=i <<,c=j=jJ<pi1=ij8ji8z8<ji-8-<:i<8D0i7=ii=d8ii=i88j=78811",
"k <:5===j,ir88i1<18i8di=ieijj=8nk =i8i8j8z987d7wi18i8i8ij,=,=",
"-=X:5:<71<4X=1-1 w411::1<<<1<=1<-=1,14,-==1,==7<7=P<2=1=== 11",
"<=1l1<i11113l1<:::1323A64<1<211<u:<<:<43<:4X .4::1< X4<1 <1lp",
"<<lryyyHdyydyy0d73191=8yqy1=a7y:8=D-i18L0<-=qw2,2<18tyy==iy8I",
"8<lif9f17idd8q8ikd887<ii8dVi8jdk8f8812w1yyj=v ,19.ii=jpF8ij-d",
"q<1d9d888n2J8i9fd788ii=9pddijVddfiei=7i==p1-&<<c1i-=ir=f==i88",
"-1<i8808dji8xiy11id=ji+dij88ii7e=l<1j8<i<==rq:j ,i=UjjZi7jr=8",
"yi1=8=d87di8ii8ydi79in887888yd8i2l8i=e,8ef: i411i8,<i,jY7ie=r",
"8<n8=7id8ii87i788ip3i,i7dd88ddi8978=i8==i888<3211888i=8Y<f1ei",
"j<id888j-8j=7288ip9f< :ii7dd8881===7211 2==v02 :j,iif7=-rjd+i",
"d1<8ifjdyfdin897fiyid838i88if87=f18iiii38u31i<j=u1,i8fi,==f=8",
"y1ldd8i8888idd7788yi8d<71i88jrd==n-pi1i71qfiii2j,1Ji8=-jfi=fi",
"81=y888il7id8dii=9=9i8VN=7ipjd773772iiii,i1p71=i7<7i=8-==i=8i",
"b1188yii88ddkd8i737i< 87=8888i8p9i=7i11=iq:<<wj:1<fFi8i88+8df",
"F1<d0zd7=zzdi=i27pi1888i9881=7j<pi=T1=<j1ft88ipp=:-ji8i8J,88f",
"y<<=id88zRzE88,3r8ijjC1i881iij35i21p>=,cp118,r=i8ji7j===iKfiq",
"r<1idy88f88d<<i>i9i788i71jii=1izi=:-=&&&11<ji7<7ji=jj=rjr=-ei",
"===11<,=1=11<==1:21>=44111=314cA41-5545X4412 :1wc<<1=:,1-<:=,",
":X3:11<<<<:1=<1::X113<<::1<<l1< 11 <4:<l:1:3=<1<434: 11:4X:<1",
"i<88y=jq8ydf=rWqi<1f8881i98yyF88rfiDV9iy,i=8,=8d57j888F9B**8=",
"8:jirdi1ieiie=,u8:<-8jt18j7jed77<8iiqe88y==m79i78=i1ic<18fj:=",
"<:r8=i=ri+-i,j8<<:1Fijmq1rF8eXij888i==7iiiq887=1Q1ip!=:-iFt8j",
"j:iijiieif-j8=qyj:=j,i=8yf=-888jdjj+-8iw79,=,7ii1<<=<yi71 =r8",
"j:<j-F8i=-riiK-<j:1r8qy888dd8888==idij1iyjj888ii*1<f:$1,lj=if",
"ec=Ki<iiji=e=,e,ec<jr~8887=2j888yi8iiiddi=8ii,< =,-7id2iu-=ij",
" :ji=--j88+8jj8= :<a8i8j=8i8i<y7fi8fi1:ia8e==iijp2133iiijrj=,",
"cA,i=r=j=<jif  #cA<qee8i=288i=7i*j8fj==drjf8fj:+<i=p1=,=11=<8",
"g<r1e<8=<e% fq8eg<1888i8fi=i=idjJ88eifd9=itj<t:<1i,i,.1X1-i<<",
"j1=,j8, ^ei-<#=8j1=eq88q8ef 88d8rq888g88==f/8f8dj0237<:14=1j7",
"D ij88-j+i=8%=ieD i=ffi-=rr>=iqfyiijind8i=j88de=8=17iu =28T=j",
"Kc-ieij8=<=88F--Kc<8r8r9888i8j=1ed8ee8r=<i8e88eD-=41=<1418r,i",
"j@+,n-  ,e:=rf -j@:8fii8fjd,8ii8i=eyff=r8,i8,8ffi==i==j*=ijjK",
": jii=j8iu=<-=FD: <ijijjj=88jjiii,8jgei8qZ=81jijiir13312ir<88"
};
