/* XPM */
static char *ccce4185af6d40b6dc5dcab4677c2f92ojFPZjVQkxkqQ7w0[] = {
/* columns rows colors chars-per-pixel */
"63 64 94 2 ",
"   c #170F0B",
".  c #170000",
"X  c #1B1B00",
"o  c #131300",
"O  c #231307",
"+  c #2B1F00",
"@  c #170B0B",
"#  c #1F0000",
"$  c #070700",
"%  c #270000",
"&  c #0F0B07",
"*  c #1B1300",
"=  c #2F2313",
"-  c #2F170B",
";  c #0F0000",
":  c #1F170B",
">  c #232300",
",  c #2B230F",
"<  c #2F2B00",
"1  c #271F17",
"2  c #5F4B3B",
"3  c #4B4B4B",
"4  c #3F5347",
"5  c #533F33",
"6  c #3F2F17",
"7  c #3F3F3F",
"8  c #4B2F37",
"9  c #2F4337",
"0  c #533723",
"q  c #43272F",
"w  c #433327",
"e  c #475B4F",
"r  c #374B3F",
"t  c #2F2F2F",
"y  c #372B1F",
"u  c #633F2B",
"i  c #4B4B0B",
"p  c gray12",
"a  c #372B17",
"s  c #372B13",
"d  c #271B0F",
"f  c #172317",
"g  c #233327",
"h  c #371F23",
"j  c #3B1F0F",
"k  c #1B130F",
"l  c #1F2B1F",
"z  c #2B171B",
"x  c #1B1B27",
"c  c #231313",
"v  c #0F1B13",
"b  c #6F4733",
"n  c #6B5747",
"m  c #4F6357",
"M  c #3F3F57",
"N  c #4B2313",
"B  c #2F2F3F",
"V  c #47331B",
"C  c #572B17",
"Z  c #2B3B2F",
"A  c #3B2B00",
"S  c #4B371B",
"D  c #373707",
"F  c #4B0700",
"G  c #372F00",
"H  c #7B6353",
"J  c gray6",
"K  c #2B2B07",
"L  c #13131F",
"P  c #47232B",
"I  c #2B2B4F",
"U  c #3B1F23",
"Y  c #2F2F5F",
"T  c #1B0F00",
"R  c #4F0000",
"E  c #3F0000",
"W  c #5B431F",
"Q  c #272733",
"!  c #3B0000",
"~  c #2F171B",
"^  c #3F3F07",
"/  c #370000",
"(  c #533B1B",
")  c #0B130B",
"_  c #37374B",
"`  c #433700",
"'  c #0F0707",
"]  c #2B0000",
"[  c #2F0000",
"{  c #23233F",
"}  c #2F2F07",
"|  c #1B1B2F",
" . c #0B0700",
".. c white",
/* pixels */
"  . X X X o O O + X O @ # . $ $ . % O & @ X * O + X O + = O -   + - & o ; @ : @ O O ; & O * O + O O > O & @ & O , O , % + < o ",
"1 2 3 2 4 5 5 5 2 6 5 7 7 8 5 5 9 0 2 5 q 9 w 0 e 5 0 r t 0 6 w : w w w 9 = 0 w 5 r 5 0 6 6 5 8 y w y 5 0 6 0 5 5 u i 9 5 5 7 ",
"p t t 6 a y t s y = t t d = f = y = O g d O d O = h 6 - j - 1 5 k y 1 1 1 O : = = = l t z O d x d t - d c = - = = d d g y t y ",
"k 7 w y O d d   O 1 1 k   p d 1 p d p d d p p f k $ : : d k a w   g y d : c : : v k & & O k O d O k k : 1 d d f O   : d 1 d g ",
"k y y w 5 5 w w 0 w t 5 w w w 5 b 5 2 u 2 2 0 2 n u 2 u 5 : z 0 d y d 5 5 2 2 3 3 m n 2 2 2 9 7 5 6 6 2 M w 2 2 2 2 5 2 4 : y ",
"x = k d a = = j y w 6 y y a 1 j N N w 6 w B j w w V 6 C 5   d 6 @ - d 7 t a y w y N y y y w y y y w w V y 9 w w y j Z a w 1 y ",
"k -   = % t = = y = N j y w 6 y w a j j j y A 6 V C S V u k : 5 k , O w V w w 7 w w w j p s w y a j D = y V w = y w a l t p g ",
"c l : k : = y = a y t d 7 6 y j N j j N 6 j j - F 6 V g u O t 5 c d   w w V w w 7 = - y G y Z y t w V y w y 6 y y j 1 w H d y ",
"k p J K 1 = - y Z - = y y O 6 6 y w s N y N N j C 6 a y 2 o : w   O L V w y w V y y w w y = Z w A w 1 = 6 w V V Z y 1 - s d = ",
"f y k d d f = w Z y d = a j 6 6 a 6 = w w N N j = a j V 0   d 5   z c w r w y P 5 A S V w 6 t w h y y w j Z 6 w w w y l w : = ",
"k 1 k : : g 6 + j d 7 y S j - y w V N w V w j y N V j j u O d 7   y @ w V w a w 5 V 5 = S w 7 Z t w I t y j V y w y y 1 0 1 d ",
"k p c y : d - y y w w - - U 6 = y j j N V - 6 V N 7 - U 2 : - 5 k :   w 7 6 V 6 Y N 6 t y w y t y h t y w V 6 = = , w = 4 p = ",
"c y : = y a y a w j y s a U = - w d * 6 N y V w V y N N u d = w J y : N j w S s 6 w w w w q w t w = a j y t 1 p y = N w 5 c = ",
"c y : d T - l = = y y y w j O N j w t y N V 6 6 = V a N 5 d - 4 J = p a U 6 6 w w y N 0 N w 5 w w a 6 a a = = y y s y t w d y ",
": - : 1 k c = 1 = = = P 6 = j - w U w P - a a y S N a - 0 f = 5 @ 1 k s w 0 7 y 7 N N 6 V y 6 w B j 1 , j a t 6 w w , a w 1 s ",
": = O = y l - = t 4 7 y j 6 7 y , y o 6 6 j j S 5 w 6 t 5 1 y u c 1 k w w 7 6 w w s = t w h = - y j 7 t y w 6 6 7 t 1 p r 1 R ",
"p y : = j y N K - w = j = j y y j y y - 6 w s N N j j E 5   y 0 O z : 6 s - 6 6 w V 6 w y y : y y w w y g 6 a t 1 j y = w = w ",
"- y : , = K y 6 j w - y j = w w a y , 6 j 6 j - 6 N N 6 5 : = w : - k 0 V 6 j 6 w w 6 5 y y 6 a = a a y h w 7 w 7 - y f w 1 s ",
": t O - F = y w w w = j - O 6 y = 6 = y j 5 w A 6 w - j u : = 5 k : k j U w w W y y 6 w w w y w t y w w w w N w a y d 1 5 1 = ",
"d z k = a - 9 j w y w j S 6 y w y w T U = w w Q C U ! N 5 1 w 5 O O J w a a l j a 7 6 P j h 6 6 t t y d y a 1 , O g h 1 7 - t ",
"  y c j j o - = y 6 w a V w y y w y - j N 6 w w U 6 N N u   6 0 c =   w 0 5 a s y j w V 0 = w w 7 Z w w = 1 ~ t O g = w 7 - t ",
"c g   j 6 N S w y w j w y V w = y w y j w - w a w y 0 V u d = 5 : d * N a a a j y w y y h 6 7 w B w w 6 = 6 6 j y y t y 5 y V ",
"c t 1 1 j O j N j a 8 - y w h a y 6 w a 6 S 3 V , j ^ - u 1 t 0 - j . 0 r y y a w - a 7 w y N a y w w a y t w w 1 = l = 2 , w ",
"c t   j j j = y j = s - z d = C 6 w 7 w j y j 6 N N j S 5 d j 0   d c 0 6 w 7 w y w 7 t , V 1 w y w w w 6 j , j j a V y w d j ",
"O 1 > j 5 y a = = 1 y j y - y - y 6 = j y a N 6 y 6 w 6 u : - 5   1   V j w y = j w w 7 6 5 w B 6 w w y w w V / y y g g 5 d y ",
"p y c S a 1 d j w = + w 6 K w y a w w w w w y j w S w 0 2 - - 5 : - : y j y y 6 a 5 w V N w w j V h j y 7 j w j t ( 6 y 8 1 - ",
"O y c = y 1 * + w j a j a y y w w w s j N y y t N j j A u 1 - 5 @ =   6 y y w w w 0 S y 6 N S y j h w y w j y = y = a = w 1 w ",
": = c - = w a = - y y d = a 6 y a j 7 V 1 y j 6 V j j j n 1 j 5 c c J w y y j Z a N 7 t w = w w y 6 j w y w - = y y y 1 w 1 y ",
"1 y p d - y ( j y - j = j y j j w = w a y y - d 6 = 6 w u = y 0 k - J j w w A w w F O y 6 w w w V j j t y y ~ 6 = w g y w 1 y ",
"O y 1 = w = - s 6 j - a j - a w y 6 j V - j a Z y w j N u = Q 6   j 1 = w 6 5 w j V w w a 5 N s A j w y y y a = j y y = w j 7 ",
"  y O 1 c c p c : k : c c c k k c c k c c c : c p 1 1 1 j l t 2 k - O   c   k & @ @ & k   k c     :   k * c k       1 1 j a w ",
"d j y y t y = 1 y p y y y s 1 l f 1 : 1 y t t y y t t y y Z t 2 O y y , - = y 1 y : J p : : y y y 1 - y + O - z - 1 w = y w j ",
"p d c c O @ c   k J ) c c k J f   @ @ o k k c 1 1 1 c c     :   p k     @ v   k @ v k & @ k   : : : J k % O k p @ k     d d O ",
"d 5 5 5 n 2 5 3 5 8 5 3 7 u 8 b 5 7 5 w 5 5 n 5 5 5 5 7 8 u 5 2 k 5 5 5 8 5 w Z 5 5 w w 0 q w w 5 5 0 5 0 0 0 0 0 5 0 5 2 u u ",
"1 7 w y y 6 y y h t t t = y y V = U t O y d s V y s = 7 j y h 6 f 6 = y g = O - = = = = s - = Q = y = O j j 6 - j y = 7 j j w ",
"1 w w y 1 L p d y 1 y d d d l O p d d c - O p d > : y p p f t 5 k y h = 1 O 1 : p d : O d p k p d O 1 O O O d : 1 d z   1 = 7 ",
"d w w w 6 6 w 6 5 _ w y w 6 w 6 5 5 0 5 0 u 6 0 w 4 2 6 5 l a 5 d y 1 2 0 5 5 w 2 n 2 7 5 y 8 5 w 3 5 2 7 r 0 5 4 w 9 7 w p y ",
"p w t < d = y ~ y - k - O O : = c d - - + - d - 1 y - a 5 f = w o d d j a p t y = S p y y w w = j y t w y t w g - 1 T - 5 d y ",
"  1 p j O - y , = a p , y a j j p 1 - O T y = y y w y y 2 d = w J X O t t y y g a y ` y w y y v y y y r y a y y y a - 6 w , 6 ",
"d t 1 l 1 - - O 1 Q s = , = 1 = y j = j Z - j j - a z - 2 , = y % d ' - = y w Z Z = y w y O y = w w 6 h w y y l w t = : = - y ",
"k y O y y 6 - j = j a ^ a y ~ h = j = ] - O a s - y 7 N 5 k = 0 J f   y y w 7 y t y y = a y 6 y j y l 7 1 Z - 1 = V 1 j 8 1 - ",
"c y : N E w = d - j = - d y j y 1 - s j y d = = y y h y 5 k p y & p @ = w y y y y y w 1 y g t w y 6 w Z y s t 6 a j d y 6 O < ",
"c 1 p j = - y 1 = = - 1 ~ w = = g y % O l - y y = y 7 Z 5 v ~ w k g   A w w 9 a y y a d d = y w t h y Z w w j = = , , - y d s ",
"@ : c = a j s y w : - w y F y l = t d y = = [ - { j j a 5 , = r   T k w 7 Z w w w Z - g y y t w y y 7 y y t w 5 a 7 j y 6 d - ",
"k 1   j K = y 6 = , = - 1 - F a : o - d = a y y a 7 a 7 8 v ~ 5 @ k & t w 6 y t y y y w y 9 y y t Z h j t a y d 1 j w t 5 , y ",
"c y c y a y y j { : , = = c = j = - y y = - j - = = j y 5 J d 5 @ p c w w s w s p a a y 5 w 7 w y w w Z w = = f y p a w 5 = s ",
"1 y c 6 a z = - y g : t w a = = - 1 = d - - F a O [ - j 0 @ c 7 k : & w w y a y y t a 1 t Z 7 7 7 w r B l h h y y t y S w d = ",
"p 1 c j w t y j G 1 d Z y y a g t - j = j y - - = 1 y j 5 : - y & :   a - y y s 7 6 y V y w w 9 y t w y 1 t h y w y N N 5 O d ",
"d y   w y a j j j y = = y = - ] O = j O < j = } + j y a 2 1 f w   k & w w w y 6 w q y a Z y y y 7 7 7 w w w y g p a j 1 S O = ",
"1 = : l y y a = = y = j { - a y , N = a j = + , y = w 6 u 1 d 5   : O 5 w y 7 w V 7 = y w w w V t Z w t t w N t y 1 Z w 2 1 = ",
": p @ j y y = 1 j O - w 6 y - j y t = j j - V a 6 5 S V 2 : y 5 k f : ~ y = 7 6 U 7 w y + w 7 y y w 7 t g t a w Z w ~ 1 2 1 y ",
"c a   = = 1 S w 6 y 1 6 w y = % j j a y j 6 j y w w y 5 u d p 5 k : o w w 7 7 V y t t t w Z j t j y w w w w E Q h y 6 j 2 1 y ",
"  y O y 1 p Z w h w d = g a t 6 a - 6 j 6 j j w h w 6 + 7 : = w @ f k w 7 y 5 w 6 w N m a 7 w y h t t j y y t 1 a h s y 2 d y ",
"c - : = u a 6 w N y y = F - y h O + , N j j y j a w V N 2 : O 9 c p & w 0 6 V w w V 0 y 4 w y t 7 w 6 = a w w w w y P 5 5 d y ",
"k : c - 1 a = p j t j a = a w y 1 a y - j N w 9 a 7 y N 5 c = w k O   7 a t a 9 ~ 6 t 7 5 y Z w w 9 9 = 1 w = = = t w w 3 d s ",
"d y k t d w j + Z F j l [ 1 N C ` - , s j j j y y w 6 w 0 p Z w & v   7 w w w 7 5 w w 3 5 w 5 t j w a 1 w y g 9 t ~ w ] u - y ",
": z   w l t t N w = = - - : N - y y - = T = = A - N 6 V 3 : t y   f   y 5 w y 8 U 7 w y y 5 w Z w t y t y y d Z y w w w 2 = y ",
"c y : = Z 6 = = - j } = = a w y - = l 6 w N N S _ r w p 2 k t w k O c 5 S w w w t 7 w 6 j a a w w 9 Z O p = y w 6 w w w 5 d 6 ",
"d ~ : w j Z - - a N p y j y d = w N w 6 = j y 5 V 8 0 0 3 ) y w k y c w Y t 5 w w w w t t Z l = Z = j w y a w 1 j ` w y w - - ",
"  s : p = w y a j - - = = Z > w w a N t N w y j - 7 N w u d d y @ 1 & 6 = w 6 7 7 w S 0 y 7 t y w w - t w w w h y w N 7 m , - ",
"- t : y j j Z = j T - = O h 6 ~ s V A a V j j 6 S V V 5 2 d = w J |   0 V V h y B w w w N 7 Z w w y y a Z t w y 6 a 8 7 3 c V ",
"k - 1 = y , j s j a - 6 - = y a k 6 a A V t 6 N j w w 7 2 : - 6 k : k 7 w 7 6 w w _ y w 1 = y 7 j a y - 5 y a w w w w w 0 a F ",
"c s z 1   c c p c J c k : k k   v : k k   k &   @ @ O d > d = 5   O  .    L k k   @ o c k :     k @ o @   @   k   : X O N 6 w ",
"d = = t y y y : 1 p p y p J k 1 1 1 z k : v c : 1 1 , d j d a 5   l f d j 1 d - c 1 1 k :     1 : 1 = 1 : 1 : y 1 1 d = y s w "
};
