/* XPM */
static char *_694f5078f4d431386dfaac4f5fac22bVqUvBe3fqL50r4qJ[] = {
/* columns rows colors chars-per-pixel */
"63 64 88 1 ",
"  c #231307",
". c #0F0B07",
"X c #1F0000",
"o c #0F0000",
"O c black",
"+ c #270000",
"@ c #170000",
"# c #170F0B",
"$ c #1B1300",
"% c #170B0B",
"& c #2B1F00",
"* c #2F170B",
"= c #231313",
"- c #131300",
"; c #1B1B00",
": c #0B0B00",
"> c #533723",
", c #271B0F",
"< c #1F2B1F",
"1 c #0F1B13",
"2 c #1B130F",
"3 c gray12",
"4 c #271F17",
"5 c #1F170B",
"6 c #13131B",
"7 c #533F33",
"8 c #433327",
"9 c #47331B",
"0 c #433700",
"q c #2F2F2F",
"w c #2F4337",
"e c #3F5347",
"r c #2F2313",
"t c #372B1F",
"y c #2B3B2F",
"u c #172317",
"i c #3B1F0F",
"p c #372B13",
"a c #533B1B",
"s c #233327",
"d c #4B2F37",
"f c #374B3F",
"g c #3F3F3F",
"h c #3F2F17",
"j c #4B2313",
"k c #2B230F",
"l c #23233F",
"z c #372B17",
"x c #4B4B4B",
"c c #37374B",
"v c #1B0F00",
"b c #572B17",
"n c #5F4B3B",
"m c #371F23",
"M c #5B431F",
"N c #272733",
"B c #232300",
"V c #2B171B",
"C c #3B1F23",
"Z c #2F171B",
"A c #5B5B5B",
"S c #6B5747",
"D c #43272F",
"F c #2F2F07",
"G c #2B2B07",
"H c #0B130B",
"J c #4B371B",
"K c #2F2F5F",
"L c #3F3F57",
"P c #2F2F3F",
"I c #3B2B00",
"U c #632F1F",
"Y c #070700",
"T c #5F3F4B",
"R c #1B1B2F",
"E c #633F2B",
"W c gray6",
"Q c #372F00",
"! c #6F4733",
"~ c #2F2B00",
"^ c #475B4F",
"/ c #4B3700",
"( c #373707",
") c #2B2B4F",
"_ c #3F3F07",
"` c #5B4700",
"' c #2F0000",
"] c white",
/* pixels */
" . XoO+@# $%%$&*= @#%- % X@%.&**+     ;%%:-$@  -. @X--..&.. -+%",
">,<,123,,2,24#11145,,<,53,55#, %2,524, 32#$55%#,5,. ,51%22;265#",
"73,890qwer<<r554tqq88yww944uu5#ipwa7,r4 73,4*4=744ytX u*88rst87",
"d5rqq8wy7fgf,s<sq8ttgttq7wrg*8,,rtth44hia8t#=g8jt3,s58k,+ lrrzj",
"x5t88q8ttst87ttwt<qqrig445gr8qttzzq88rur4z4,k 4 ir#;,24rt4rt*t8",
"7t88888zyp34rtgqg8t88yx44ur3ztr4ky<8ytzttrl#5,,24,45t4u p5,krth",
"7,8z9tqtrtrqr4qyggg8gc344tr<t84<tt4ttzr,4=8<#strkr 5k5,,irv ,ib",
"n,tzzr*t<pyt<ttt8wtqqwnfm<qthht8888trr8qsz045yt4rsq r,rt ,,4trM",
">Ng8zyt8tt8ttzstttgwgy8qtwuz,4k 8ih4t8trr*h84,t4*v#4rvB&4k&*rrh",
"7,hqt78tgt8gkt8888qq8qstpg4,qq8ztrzrt3t4r448rrl,zt,z4rkk&5tr8t8",
"e4tgzVt,gtCg8t&tqttqgs<qrge7448zt8tktrtt44iv*tt4,rtqkrr*trzgr48",
"dN8Zt88gghtqq<qyrqrt8q8q*N4ttr888th&qk,u88zt,t8t4vpirt*tktt8trh",
">4i888gt78tthArg8tmqq,tsq4ztpt8*8rtzir42q84854sr<tr*zrtr*8m8z&8",
"SNDyr88h888h8mg8tqgtzkz88qttCgttr8zzp47zz8ztt4&,zm#&,prrtiz889*",
"nN8g7gzqry4tqggtq88wy4uq4,4q88g8qk9h &4z43kqrzrrtt4kt,rttyrgtz7",
"7,tgrg88qgg88xg8gqrqr2tt<yq48v8tprir8<5t,Bs*r4 3phF,,Gkr*tt8z88",
"Stk4r4qr4q4qr44qr<r34344#<4r3<r#54545413u,r22$##k 44 5:25B2*4r5",
"73,4,4N4,,t 4,4,3,2,,45<,443,1226#.1#%#H#4<,#215,,5,543,, #, , ",
"n4ttg77q97nJn,88gqg7Kq<r8t8782rs33twz##s> J5yt8r,t8JJ788r8ja*rj",
"S:$ 88gthzLh9gt8tttmq8f8z4,,74y87y2 8822zh778, tz4tz,pM z9zg*m8",
"nrttipzq8rz8888qtq84rr4q424,Mq<<4t,324<r4r8ktrztr 85-zM7888th9g",
"xt7e8ztzz88tp8h8g88rzzr,ktzptg23kt5<t2v 344ttr8* pi7gthhtpk8rir",
"xr78tzt8gtgphs8thqPr4,krqtwt,z8#,q<452.#r444k8zkp*8ttt,zzt8pz&h",
"n3gr8qqgt88r4qgV,*zigq48hzgqu3yth2Hh988<,,qegtptgtut:zzrr88tz.p",
"S,8tkpp*ztgttqg7#tt8ttstrs4ptr,8uaJ2#,rth5 8kzrz4tktt,z8pihzr*b",
"nr7hr8hz9J8tzgt78rkrz448gqf r14q4z9zz,454zkq tkktqrtutrtr&tizz9",
"S 8q,rt877zqtq8qt8stty88z89722sr8zt<p *ktt884r vttrz,tk78Ih8 a$",
"SN87rqrzrptgtC*Vpzsqt5<z85$wa2stutt4 r4 yz8t8r9zt8t8:z48tN9m*IU",
"n4kyh877trtr8t8r88wy88J2tfv<h8qrt4=<t&*Y ktt8r88ttqq,rhz88Zzzth",
"74tzzCzziry8tmmhgqD88z89tat<ttz4v<83#kt888t8r8t884ty4pq 8r8t8t9",
"n5t,8>wtqrttrg8ttrt88zrq88443rqttrt ,,kvrzrzP,st4rtz8zt8x8,zt*8",
"Trt8t8z8xy8qgqut48t8t8tzkrkr8t,qy,51rrrzktp88t4,48t8gtrtitzzr8m",
"44k42k*rr4krrq,qrR,<r4rrr 444rr2u#515,q4,2#r4*4 u244554,,,4,r4,",
"74N4,t44443N4,55543<3:62,4,<44,=5,,5,23,52# ;2554, #2,4 ,4Ns315",
"xNp777Lg77g77wgq34y4r87974r0q758r>*t48Uw,*r9u<k<,48a77rrt78dggz",
"ENthyh4qtgg898tfg88q,tt8gDt8zgf8h884<u477zrb k4y;ttrzsJ8tz*gh89",
"n4gyg888m<P8tyhgq88ttrysggtzDgghtitrqtrrs4*.,,v4t*rtprhrrt888gt",
"E,t88w8gzt8ct744tgrzt&gtz88ttqirN,4z8,t,rrp95z ktrWzzGtqzpr88g9",
"74r8rg8qgt8tt87gtqytm88q8887g8t<N8trik8ih5 t244t8k,tkzQqtirptgh",
"nm8rqtg8tt8qtq88ts3tktqgg88ggt8yq8rt8rrt888,3<44888tr8Q,h4itgz9",
"ntg888z*8zrq<88tsyh, 5ttqgg8884rrrq<44 <rrbw< 5zktthqr*pzg&tU,*",
"n,8thzg7hgtm8yqht7tg838t88th8qrh48tttt38=34t,zr=4kt8htkrrhr8JM7",
"nNgg8t8888tggqq887t8g,q4t88zpgrrm*st4tq49httt<zk4Pt8r*zhtrhttg8",
"xr7888tNqtg8gttryryt8DCrqtszgqq3qq<ttttkt4sq4rtq,qtr8*rrtr8t8*r",
"n4887tt88ggfg8tq3qt, 8qr8888t8sytrqt44rt95,,uz54,hJt8t88&8gh7UM",
"!,gwxgqrxxgtrt<qst4888ty884rqz,str~4r,z4ha88tssr5*zt8t8Pk88ht98",
"7,rtg88xAx^88k3p8tzzF4t884ttz31t<4sBrkvs448kprt8ztqzrrrtIht98tr",
"g4tg788h88g,,tBtytq88tq4zttr4txtr5*r...44,ztq,qztrzzrpzpr*itzsz",
"7r44,kr4r44,rr45<4Br22444r342v:24*1121#224< 54uv,,4r5k4*,5rk545",
"n443,,554,,N4, 44 ,25,N5453r,4,2325 4452#5,4$44,43544,,,,54r,45",
"h4h8884ty877J88pht>Dyt7ktr8kr8g1qz888JyZ$$8rzJ>7*887rz987ghrp/9",
"S,*8za48zqzigqq,8tt9i887rrMqytq8rt4tv,48hz5rttrr9ztpgt4tittirk=",
"n4JtzM94pJ8i#tz888trrqttt988qr4(4ts)r5*tJa8zzrzhzp8rtrpt&*tkz8,",
"7rzktr87hr*888zgzz&*8tuqykrkqtt4,,r,7tq4 rp8,zr*mttzttith*z8r97",
">4p897888gg8888rrtgtz4t7zz888tt$4,h5Y4kNzrthz8tz,,z*J8tr*pttI*,",
"E,zp_888qr<z8887t8tttggtr8ttk, rk*qtg<t=*rtzhhrtzrIt,ttztrirkik",
"d,08t8zr8t8t,7qht8ht45t08irrttzs<433tttzpzrktrtzzztr**z88&8zz8r",
"n,9ii8tr<88trqt$z8hzrrgpzh8hz5&,trs4rkr44r,88tthrktrprzr,zth  X",
"n4888t8htrtrtgzP88ithgyrtaz,a5,4tktk;4#4*t,,zr&8hp4i,8r,i+ h98i",
"7ri98898ih 88g8p9888j88rrh`8h8gzw<3q,542r4zq*h8m8rkz8k 'it*,Xr8",
"ntrhht*rppBrt9h7ttztmg8trz88gir8r4qt= r<8~rzg88rFtz88*z&tr8+rti",
"n,8p8py888t8zr4ig8ii8pr,t8i88i>*r24r,4248pkt8**%p*titz8r,r88J**",
"E58htt8hzgk8tt8tri7hhrp8kt8k8hhtrrtrrz$rtzzIkrhph&km*  ki5rph *",
"n,tztzzzr88zztttk8zjit89Gr84ztzttp4334<tp,88 zzz8zttrz8t=r,*rJ>"
};
