/* XPM */
static char *ce68689e19b642518c50c006d7f50747[] = {
/* columns rows colors chars-per-pixel */
"180 80 4 1 ",
"  c None",
". c #FD0000",
"X c #FE0000",
"o c red",
/* pixels */
"                                                                                                                                                                                    ",
"                                                                                                                                                                                    ",
"                                                                                                                                                                                    ",
"                                                                                                                                                                                    ",
"                                                                                                                                                                                    ",
"                                                                                                                                                                                    ",
"                                                                                                                                                                                    ",
"                                                                                                                                                                                    ",
"                                                                                                                                                                                    ",
"                                                                                                                                                                                    ",
"                                                                                                                                                                                    ",
"                                                                                                                                                                                    ",
"                                                                                                                                                                                    ",
"                                                                                                                                                                                    ",
"                                                                                                                                                                                    ",
"                                                                                                                                                                                    ",
"                                                                                                                                                                                    ",
"                                                                                                                                                                                    ",
"                                                                                                                                                                                    ",
"                                                                                                                                                                                    ",
"                                                                                                                                                                                    ",
"                                                                                                                                                                                    ",
"                                                                                                                                                                                    ",
"                                                                                                                                                                                    ",
"                                                                                                                                                                                    ",
"                                                                                                                                                                                    ",
"                                                                                                                                                                                    ",
"                                                                                                                                                                                    ",
"                                                                                                                                                                                    ",
"                                                                                                                                                                                    ",
"                                                                                                                                                                                    ",
"                                                                                                                                                                                    ",
"                                                                                                                                                                                    ",
"    ooooooooooooooooooo oooooooooooooooooooooooooooooooooooooooooo      oooooooooooo oooooooooo       oooooooooo  ooooooooooooooooooo     oooooooooooooo oooooooooo  ooooooooooo    ",
"    o          ooo   ooooo   oo         ooo          ooo         ooo    o         oooo        ooo    ooo       oooo           oo   ooo    oo          ooooo       oooo         oo   ",
"    o          ooo   ooooo   oo         ooo          ooo         ooo    o         oooo        ooo    ooo       oooo          ooo   ooo    oo          ooooo       oooo         oo   ",
"    o   oooooooooo     ooo   ooooo   oooooo   oooooooooo   oooo   ooo   oooo   oooooo   oooo   ooo   o   oooo   ooo   oooooooooo   ooo    oo   oooooooooo   oooo   oooooo   ooooo   ",
"    o   oooooooooo      oo   oo  o   oooooo   oooooooooo   oooo   ooo      o   oooooo   oooo   ooo   o   oooooooooo   oooooooooo   ooo    oo   oooooooooo   oooooooooo  o   ooooo   ",
"    o   oooooooooo      o    oo  o   oooooo   oooooooooo   oooo   ooo      o   oooooo   oooo   ooo   o   oooooooooo   oooooooooo   ooo    oo   oooooooooo   oooooooooo  o   ooooo   ",
"    o         oooo   oo      oo  o   ooo  o         oooo         oooo      o   ooo oo   oooo   ooo   ooo       oooo         oooo   ooo    oo         oooo   oooooooooo  o   ooo     ",
"    o   oooooooooo   ooo     oo  o   ooo  o   oooooooooo   oooo   ooo      o   ooo oo   oooo   ooo   oooooooo   ooo   oooooooooo   ooo    oo   oooooooooo   ooooooooo   o   ooo     ",
"    o   oooooooooo   ooo     oo  o   ooo  o   oooooooooo   oooo   ooo      o   ooo oo   oooo   ooo   oooooooo   ooo   oooooooooo   ooo    oo   oooooooooo   ooooooooo   o   ooo     ",
"    o   oooooooooo   ooooo   oo  o   ooo  o   oooooooooo   oooo   ooo      o   ooo oo   oooo   ooo   o   oooo   ooo   oooooooooo   ooooooooo   oooooooooo   oooo   ooo  o   ooo     ",
"    o          ooo   ooooo   oo  o   ooo  o          ooo   oooo   ooo      o   ooo ooo        oooo   ooo       oooo           oo         ooo          ooooo       oooo  o   ooo     ",
"    ooooooooooooooooooooooooooo  ooooooo  ooooooooooooooooooooooooooo      ooooooo   ooooooooooooo    oooooooooooooooooooooooooooooooooooooooooooooooooooooooooooooooo  ooooooo     ",
"    ooooooooooooooooooooooooooo  ooooooo  ooooooooooooooooooooooooooo      ooooooo   ooooooooooooo    oooooooooooooooooooooooooooooooooooooooooooooooooooooooooooooooo  ooooooo     ",
"     ooooooooooooooooooo  ooooo   oooooo   ooooooooooooooooooo oooooo       oooooo    ooooooooooo       oooooooooo oooooooooooooooooooooooooooooooooooooo  oooooooooo    oooooo     ",
"                                                                                                                                                                                    ",
"                                                                                                                                                                                    ",
"                                                                                                                                                                                    ",
"                                                                                                                                                                                    ",
"                                                                                                                                                                                    ",
"                                                                                                                                                                                    ",
"                                                                                                                                                                                    ",
"                                                                                                                                                                                    ",
"                                                                                                                                                                                    ",
"                                                                                                                                                                                    ",
"                                                                                                                                                                                    ",
"                                                                                                                                                                                    ",
"                                                                                                                                                                                    ",
"                                                                                                                                                                                    ",
"                                                                                                                                                                                    ",
"                                                                                                                                                                                    ",
"                                                                                                                                                                                    ",
"                                                                                                                                                                                    ",
"                                                                                                                                                                                    ",
"                                                                                                                                                                                    ",
"                                                                                                                                                                                    ",
"                                                                                                                                                                                    ",
"                                                                                                                                                                                    ",
"                                                                                                                                                                                    ",
"                                                                                                                                                                                    ",
"                                                                                                                                                                                    ",
"                                                                                                                                                                                    ",
"                                                                                                                                                                                    ",
"                                                                                                                                                                                    ",
"                                                                                                                                                                                    ",
"                                                                                                                                                                                    ",
"                                                                                                                                                                                    ",
"                                                                                                                                                                                    "
};
