/* XPM */
static char *result[] = {
/* columns rows colors chars-per-pixel */
"32 32 4 1 ",
"  c white",
". c gray71",
"X c black",
"o c None",
/* pixels */
"oooooooooooooooooooooooooooooooo",
"oooooooooooooXXXXXXooooooooooooo",
"ooooooooooXXXXXXXXXXXXoooooooooo",
"ooooooooXXXXXXXXXXXXXXXXoooooooo",
"oooooooXXXXXXXXXXXXXXXXXXooooooo",
"oooooXXXXXXXXXXXXXXXXXXXXXXooooo",
"oooooXXXXXXXXXXXXXXXXXXXXXXooooo",
"ooooXXXXXXXXXXXXXXXXXXXXXXXXoooo",
"oooXXXXXXXXXXXXXXXXXXXXXXXXXXooo",
"oooXXXXXX    XXXXXX    XXXXXXooo",
"ooXXXXXXX     XXXXX    XXXXXXXoo",
"ooXXXXXXX      XXXX    XXXXXXXoo",
"ooXXXXXXX      XXXX    XXXXXXXoo",
"oXXXXXXXX       XXX    XXXXXXXXo",
"oXXXXXXXX       XXX    XXXXXXXXo",
"oXXXXXXXX    .   XX    XXXXXXXXo",
"oXXXXXXXX    X   XX    XXXXXXXXo",
"oXXXXXXXX    XX   X    XXXXXXXXo",
"oXXXXXXXX    XX        XXXXXXXXo",
"ooXXXXXXX    XXX       XXXXXXXoo",
"ooXXXXXXX    XXX       XXXXXXXoo",
"ooXXXXXXX    XXXX      XXXXXXXoo",
"oooXXXXXX    XXXXX     XXXXXXooo",
"oooXXXXXX    XXXXX     XXXXXXooo",
"ooooXXXXX    XXXXXX    XXXXXoooo",
"oooooXXXXXXXXXXXXXXXXXXXXXXooooo",
"oooooXXXXXXXXXXXXXXXXXXXXXXooooo",
"oooooooXXXXXXXXXXXXXXXXXXooooooo",
"ooooooooXXXXXXXXXXXXXXXXoooooooo",
"ooooooooooXXXXXXXXXXXXoooooooooo",
"oooooooooooooXXXXXXooooooooooooo",
"oooooooooooooooooooooooooooooooo"
};
