/* XPM */
static char *_00da337ab694ce8d392dd108744c4c1ULbuSqDMiQjHr8HC[] = {
/* columns rows colors chars-per-pixel */
"71 73 23 1 ",
"  c #020202",
". c #060606",
"X c gray3",
"o c #0C0C0C",
"O c #111111",
"+ c #232323",
"@ c gray15",
"# c gray17",
"$ c #2D2D2D",
"% c #323232",
"& c #343434",
"* c gray23",
"= c #3F3F3F",
"- c #434343",
"; c #444444",
": c #4B4B4B",
"> c #4C4C4C",
", c gray32",
"< c gray34",
"1 c #5B5B5B",
"2 c gray37",
"3 c #626262",
"4 c #646464",
/* pixels */
"23211<21221112221111112221111111112221111111112221111111112221122,11221",
"12<22<2<<21122121111222211111111222211111111222211111111222211123122232",
"22:=**-*********************************************************=***:31",
",1=O. .............................................................o%32",
",1-.                                                               X%32",
"<1;.                                                               X%32",
"<2-.                                                               .%32",
"<2-.                                                               X%32",
"<1-.                                                               X%32",
"<1-.                                                               X%32",
"<2-.                                                               X%31",
"<2-.                                                               X%32",
"<2-.                                                               X%32",
"<2-.                                                               X%32",
"<1-.                                                               .%32",
"<1-.                                                               X%32",
"<2-.                                                               X%32",
"<2-.                                                               X%32",
"<2-.                                                               X%31",
"<2-.                                                               X%32",
"<1-.                                                               X%41",
"<1-.                                                               X%41",
"<2-.                                                               X%41",
"<2-.                                                               X%41",
"<2-.                                                               X%41",
"<2-.                                                               X%41",
"<1-.                                                               X%41",
"<1-.                                                               X%31",
"<2-.                                                               X%41",
"<2-.                                                               X%31",
"<2-.                                                               X%31",
"<2-.                                                               X%31",
"<1-.                                                               X%31",
"<1-.                                                               X%31",
"<2-.                                                               X%31",
"<2-.                                                               X%31",
"<2-.                                                               X%31",
"<2-.                                                               X%31",
"<1-.                                                               .%31",
"<1-.                                                               .%31",
"<2-.                                                               X%31",
"<2-.                                                               X%31",
"<2-.                                                               X%31",
"<2-.                                                               X%31",
"<1-.                                                               X%31",
"<1-.                                                               X%31",
"<2-.                                                               .%31",
"<2-.                                                               .%31",
"<2-.                                                               X%31",
"<2-.                                                               X%31",
"<1-.                                                               X%31",
"<1-.                                                               X%31",
"<2-.                                                               X%31",
"<2-.                                                               X%31",
"<2-.                                                               .%31",
"<2-.                                                               .%31",
"<1-.                                                               X%31",
"<1-.                                                               X%31",
"<2-.                                                               X%31",
"<2-.                                                               X%31",
"<2-.                                                               X%31",
"<2-.                                                               X%31",
"<1-.                                                               .%31",
"<1-.                                                               .%31",
"<2-.                                                               .%31",
"<2-.                                                               .%31",
"<2-.                                                               .%31",
"<2-.                                                               .%31",
"<1-.                                                               X%31",
",1;o..  ..          ....  ..     ....       ....  ..      .....  .Xo%31",
",<>$#@@@########################################################@+$&;21",
"11<<1<1<111111111111111111111111111111111111111111111111111111111,1122<",
"12<11<2<<<<<<<<<<<<<<<<<<<<<<<<<<<<<<<<<<<<<<<<<<<<<<<<<<<<<<<<<2,1<132"
};
