/* XPM */
static char *_00da337ab694ce8d392dd108744c4c1ULbuSqDMiQjHr8HC[] = {
/* columns rows colors chars-per-pixel */
"71 73 2 1 ",
"  c #020202",
"< c red",
/* pixels */
"<<<<<<<<<<<<<<<<<<<<<<<<<<<<<<<<<<<<<<<<<<<<<<<<<<<<<<<<<<<<<<<<<<<<<<<"
"<<<<<<<<<<<<<<<<<<<<<<<<<<<<<<<<<<<<<<<<<<<<<<<<<<<<<<<<<<<<<<<<<<<<<<<",
"<<                                                                   <<",
"<<                                                                   <<",
"<<                                                                   <<",
"<<                                                                   <<",
"<<                                                                   <<",
"<<                                                                   <<",
"<<                                                                   <<",
"<<                                                                   <<",
"<<                                                                   <<",
"<<                                                                   <<",
"<<                                                                   <<",
"<<                                                                   <<",
"<<                                                                   <<",
"<<                                                                   <<",
"<<                                                                   <<",
"<<                                                                   <<",
"<<                                                                   <<",
"<<                                                                   <<",
"<<                                                                   <<",
"<<                                                                   <<",
"<<                                                                   <<",
"<<                                                                   <<",
"<<                                                                   <<",
"<<                                                                   <<",
"<<                                                                   <<",
"<<                                                                   <<",
"<<                                                                   <<",
"<<                                                                   <<",
"<<                                                                   <<",
"<<                                                                   <<",
"<<                                                                   <<",
"<<                                                                   <<",
"<<                                                                   <<",
"<<                                                                   <<",
"<<                                                                   <<",
"<<                                                                   <<",
"<<                                                                   <<",
"<<                                                                   <<",
"<<                                                                   <<",
"<<                                                                   <<",
"<<                                                                   <<",
"<<                                                                   <<",
"<<                                                                   <<",
"<<                                                                   <<",
"<<                                                                   <<",
"<<                                                                   <<",
"<<                                                                   <<",
"<<                                                                   <<",
"<<                                                                   <<",
"<<                                                                   <<",
"<<                                                                   <<",
"<<                                                                   <<",
"<<                                                                   <<",
"<<                                                                   <<",
"<<                                                                   <<",
"<<                                                                   <<",
"<<                                                                   <<",
"<<                                                                   <<",
"<<                                                                   <<",
"<<                                                                   <<",
"<<                                                                   <<",
"<<                                                                   <<",
"<<                                                                   <<",
"<<                                                                   <<",
"<<                                                                   <<",
"<<                                                                   <<",
"<<                                                                   <<",
"<<                                                                   <<",
"<<                                                                   <<",
"<<<<<<<<<<<<<<<<<<<<<<<<<<<<<<<<<<<<<<<<<<<<<<<<<<<<<<<<<<<<<<<<<<<<<<<",
"<<<<<<<<<<<<<<<<<<<<<<<<<<<<<<<<<<<<<<<<<<<<<<<<<<<<<<<<<<<<<<<<<<<<<<<"
};
