/* XPM */
static char *_d84ca588ef44784e7de7fc995a585b47j7EQoBAIdS80P1h[] = {
/* columns rows colors chars-per-pixel */
"64 64 149 2 ",
"   c #010301",
".  c #0A0505",
"X  c #040A03",
"o  c #080C06",
"O  c #060609",
"+  c #090709",
"@  c #060C09",
"#  c #0A0C0A",
"$  c #110C09",
"%  c #021202",
"&  c #091305",
"*  c #021B02",
"=  c #091A07",
"-  c #061209",
";  c #0B120B",
":  c #061D09",
">  c #0B1C0B",
",  c #10130D",
"<  c #101E0D",
"1  c #0C0C10",
"2  c #100D14",
"3  c #151F14",
"4  c #042203",
"5  c #092506",
"6  c #062906",
"7  c #082A07",
"8  c #062209",
"9  c #082209",
"0  c #0A240B",
"q  c #0F220C",
"w  c #0D230E",
"e  c #0B250C",
"r  c #0B240C",
"t  c #072C0A",
"y  c #0D2A0B",
"u  c #08290C",
"i  c #0F290E",
"p  c #0D2A0E",
"a  c #092C0E",
"s  c #0F2E0C",
"d  c #0C2B0C",
"f  c #13220F",
"g  c #112A0D",
"h  c #102A0F",
"j  c #102B0E",
"k  c #08300B",
"l  c #11300E",
"z  c #0F2010",
"x  c #0F2612",
"c  c #0E2611",
"v  c #0E2A11",
"b  c #0F2B12",
"n  c #0D2B11",
"m  c #102310",
"M  c #102013",
"N  c #132610",
"B  c #172514",
"V  c #132413",
"C  c #132B14",
"Z  c #192A17",
"A  c #182B17",
"S  c #152A1B",
"D  c #1B2C1A",
"F  c #0F3011",
"G  c #163515",
"H  c #173616",
"J  c #143314",
"K  c #1A3216",
"L  c #1B3917",
"P  c #16321B",
"I  c #163519",
"U  c #18341B",
"Y  c #1D341A",
"T  c #1D351D",
"R  c #1B351B",
"E  c #173819",
"W  c #173A1A",
"Q  c #1C3B1B",
"!  c #1C3E19",
"~  c #1B3C1D",
"^  c #1D3C1D",
"/  c #1C3B1C",
"(  c #20331F",
")  c #223B1E",
"_  c #213B1E",
"`  c #1F3421",
"'  c #1E3B22",
"]  c #223523",
"[  c #233B23",
"{  c #283B27",
"}  c #253C2A",
"|  c #253E28",
" . c #2A3D2B",
".. c #1B411E",
"X. c #22411F",
"o. c #1D4121",
"O. c #214223",
"+. c #234222",
"@. c #294227",
"#. c #274B25",
"$. c #264827",
"%. c #26432A",
"&. c #2F462A",
"*. c #2C432B",
"=. c #274B2A",
"-. c #294A2B",
";. c #2B4C2D",
":. c #2B4E2E",
">. c #2D4B2C",
",. c #314B2E",
"<. c #2C522D",
"1. c #2D4630",
"2. c #2F4833",
"3. c #2E4F30",
"4. c #2E4A31",
"5. c #324533",
"6. c #304E34",
"7. c #344C33",
"8. c #3A4D37",
"9. c #394E37",
"0. c #36483C",
"q. c #3C4F3C",
"w. c #2E5331",
"e. c #345633",
"r. c #335535",
"t. c #385036",
"y. c #385536",
"u. c #365835",
"i. c #3A5937",
"p. c #395836",
"a. c #36573C",
"s. c #355339",
"d. c #3A573B",
"f. c #3A553A",
"g. c #36593B",
"h. c #395838",
"j. c #3B5A3B",
"k. c #366038",
"l. c #3B603E",
"z. c #404F3A",
"x. c #41523F",
"c. c #41593E",
"v. c #3A4F40",
"b. c #3F5642",
"n. c #3D5441",
"m. c #425341",
"M. c #435542",
"N. c #425C41",
"B. c #435B46",
/* pixels */
"                                                                                                                                ",
"                                                                                                                                ",
"                                                                                                                                ",
"                                                                                                                                ",
"                                                                                                                                ",
"                                                                                                                                ",
"                                                                                                                                ",
"X X X X X X X X X X X X X X X X X X X X X X X X X X X X X X X X X X X X X X X X X X X X X X X X X X X X X X X X X X X X X X X X ",
"X o X X X X o o X X X X X X X X o X ; X ; X o X X X X X X X X o X X X # X X X X X X o X o X # X X X X o X X X o X X X   X X # X ",
"X o X X X X X X X X X X X X X X X X o X X X X X X X X X o X o X X o X # X X X X X X o X # X # X X X X o X # X # X X X X X X # X ",
"  X   X   X X   X   X X X X X X   X   X   X   X X       X X X   X X   X   X   X X X X   X   X   X   X X   X   X   X   X X   X   ",
"X X X X X X X X X X X X X X X X X o X X   X X X X X X X X X X X X X X X X X X X X X o X X   X X X X X X X X X X X X X X X X X   ",
"X X X X X X X X X X X X X X X X X o X X X X X X X X X X o X X X X o X o X o X X X X o X X   X X X X X X o # o # X X X   X   X X ",
"X o X X X X X X o X X X o X X X X X X X X X X X X X o X o X X X X o X # X o X X X X X X o X o X X X X X X o X o X X X X o X # X ",
"  X   X   X X   X   X   X   X X X X   X   X   X X   X   X         X   X   X   X X X X   X   X   X X   X   X   X   X X   X   X   ",
"X o X X X X X X X X # X X X X o X o X o X o X X o X o X X X X X X o X o X X X o X X o X X X o X X X X X X X X # X X X X X X X   ",
"X X X X + X X X X X X   X X X X ; X X o   X X @ #   + + X X X X X o X X X o X X X X # X o X X X X X X X X o   o   X X X # X X   ",
"X X X # O X o X - X # X @ o X - X #   ; X o X X X X + X # X X X X X X o X o X X X X o X # X - X X & X o   # X + X X o X @   @ X ",
"X X   X     X   X X   O               X X X X X X   X       X     X   X             X   X   X   X   X X   X   X X X   X X   X   ",
"X X X # + + X X + X # + #   ; + + # X o X X X X o X # X o X # X + + @ - X # X # O O O X # X # X +   + # # +   # X X X X X X o X ",
"  X + o X X   X # X # X X o X #   # X o X X X X X o o X # X X o X X X - X X X X + O O O #   X X X @ O 1 O # + o o   ; X o ; X X ",
"  X X X X o X X X X X X X X X X X X X X X X X X o X o X X X % X X X X X X X X X X X # X X X X X X X X     X X X   X X X X X X X ",
"X X   3 X X X   X X f X y % * 4 % 0 X x X z - X X   X X z % 9 % * : * q X Z X > & X X X X - S : i 4 i e 8 v * v 4 g : q B X X   ",
"X @ - m.> X - X X X 9.H ! #.s e.4 l.u 6.P } 0.X X o X X b.U E :.u s.* N.g &.) R 9.X X % X q 4.6.E p.H h.~ -.-.O.3.^ f.T x.> X   ",
"o X X ] g X & X X X  .U 7 <.* u.* <.7 o.' r v.X - X - X | ' 7 <.* u.* ,.y L _ 5 y.X % % % X [ * u C X >.X &.X ) * : T X  .X o X ",
"X X X *./ X X X X > *.C [ J R Q 6 ..6 ~ y [ C X X X X >  .i / H K _ j Q 6 O.t E b X X X % X D X C X > > X D X C X C X * - X - X ",
"% r X 0 % : % X X   X   X X X X * j % J % g * = B X X X X X X X X X % J % t * 7 * 4 D X X X X     X X X X X % R 0 b u e ] X X X ",
"9 B.% d.* @. .X # @ O X # X - X = c.4 7.J _ ,.e M.X % X X X X X & X = f.7 <...I s.* B.- o X $ . $ X o X X % r %.-.E d.J 7.> % X ",
"X *.X ] i e 5.X # O 1   O X - % * 7.s _ [ y >.* f.% X X ; X o X X & % f.d ..~ 0 s.* n.X X   . . # + + X X - X  .* e A X *.X - X ",
"* 7.e [ A A { X X   # O + X X X e U 4 ^ 4 H u C ` X - X X X   X X X : U 4 ! 4 E 9 D ] X o X + + X O   @   X X q X = X = > X o X ",
"X X X m X N = X X o X   o X C s * H % J % U 9 X X X     X   X X x I * J * J * y 9 X X X X   X   X X X X B ] A / J U Y X X X X   ",
"X = X m.= { { X & X X X X X s h.* f.5 :.E J 7.X - # @ X + X o X e g.* y.5 ,.L K f.X & X o X X X o - % X : 7.T / *.e 7.X X X o   ",
"X & X { C e 7.X % X X X X X N 7.4 ,.s X.^ J 7.X % X #   #   ; X 8 r.* <.J ! +.s t.% & X o   o X + # X & X 5.X @.% Z D X #   #   ",
"X X X ] C 0 ] X X X o   X X V D = T * J * l 5 X X X X X + X o X A C 0 H * H * s 5 X X X ;   o     X X X X % X : X > o   X X X X ",
"X X X ` X A > X X   X X o       X X % [ * H 4 C ] X o   X         X X X % T * I e v [ X X X   X X X ' %.E o.~ ' D X X X X   X   ",
"X - % 1.* [  .X ; X ; X + X o X X - X 7.U J 7.: M.- o X ; X # X o X - X X 5.' u s.* b.& X o # X - * 8 s.4 $.J '  .X X X #   , X ",
"X % X 5.U C 5.X X o X o X X X X - - % 7./ J 7.4 q.& - o X X X X X o X % % *.1.C s.8 b.> X X #   & X f Y X ,.X  .X X @   @ @ @ @ ",
"X X X C C : T X X X X X X X X X X X % J % C % e V X X X X X X X X X X X X U X A * r N X X X X X X X X X X % X >   X X X   X X   ",
"9 @.% @.X ) = X % % 5.> ] U J E 6 #.5 ^ 4 T C X X X X % 5.9 ^ J j ) 4 *.4 Q e K U X X X X X o X 4.o.O.=.^ -.C X X X X X X   #   ",
"% >.X *.* K  .X & X 5.A b =.4 k.% e.* -.I C q.X & X - X *.U 6 <.* j.% p.4 +._ 5 9.X % X X - X - u =.* :.* %.C X X o X X o X o   ",
"X c.* &.Y D z.X X > 5.] I <.k w.d :.J +.| ( 5.X X X - % 5._ E -.d r.d :.J @.&.K 7.X X X o o X X ] : : ] X 5.X o X # O O + X o X ",
"% C = C = < B X X % N X i % 4 4 % g % C X m - X X X X X m % 9 * 4 * * e % C X f = X X   X   X   ; X - X X X X     X     X   X   ",
"X X X X X X X X X X X X X X X X X X X X X X X X X   ; X X X X X X X X X X X X X X X o X o   o   X o X X   X   # X o X X X X o X ",
"X o X X X X o X - X o X X ,   # # X + X + X ; X X o X X X X # + @ # @ X @ @ o X X - X X #   . X o X ; X # X   o X o X X X X o X ",
"X o X X X # @ X o X # X + X + + + #   + X # X X X ; X X # O + 1 # + + # O # X X @ X @ X o X o o # X o o X ; X X X o X X @ X # X ",
"  X   X   X   X X X X X X   O         X       X X   X           X X   @       X X   X     X X X X     X   X X X   X     X   X   ",
"X #   o o X o X o X o   X X X X X o   #   +   + X X X o o   # X X X X o X o X o o X X X X X o X X X X # X X X o X X X X X X +   ",
"  X X o o # o o X o X X X o o o X - X X X X X   X X # X X X X X X X X - X X X o o X X @ o X X X X X X X o X X o X X X X o X o   ",
"X X X o X X X X X X X X o X X X X o X # X @ X X o X @ X # X X X X X X o X o X X X X X X X X o X X X X X X # X o X X X X @ X # X ",
"  X   X     X   X   X   X     X   X   X   X     X   X   X   X X X X   X   X   X X   X X X   X     X X X   X           X X   X   ",
"X X X o X X X X X X X X X X X X X # X # X o X X X X o X # X X X X X X o X X X X X X o X o X X X X X X X X # X @ X X X X o X o   ",
"  X X X X X X X o X X X X X X X X # X # X o X X X X # @ # X X X X X X o X X X o o o o o o X X X # @ X X   @ X # X X X X o X #   ",
"X X X o X X X X X X X X X X X X X X X X X o X X X X o X X X X X X X X o X o X X X X X X X X X X X X X o X o X X X X X X X X # X ",
"  X   X   X     X   X X X     X   X   X   X X X X   X   X   X X   X   X   X   X         X   X   X   X X X X   X   X X   X   X   ",
"X o X X X X X X o X # X X X X X X # X o X X X X X X @ X # X X X X X X # X X X X X X X X X X o X o X X X X X X # X X X X X X #   ",
"X o X X X X X X o X # X X X X X X # X X   X X X @ X @ X X X @ @ X X X # X X X # X X X X o X X   X X # X # X X X X @ X X X X @   ",
"X X X X X X X X X X X X X X X X X X X X X X X X X X X X X X X X X X X X X X X X X X X X X X X X X X X X X X X X X X X X X X X X ",
"                                                                                                                                ",
"                                                                                                                                ",
"                                                                                                                                ",
"                                                                                                                                ",
"                                                                                                                                ",
"                                                                                                                                ",
"                                                                                                                                "
};
