/* XPM */
static char *_955763462ad4b75bc99ca91126489c2W4HI6YIcafZ4YzNm[] = {
/* columns rows colors chars-per-pixel */
"32 32 256 2 ",
"   c black",
".  c #010101",
"X  c #020202",
"o  c gray1",
"O  c #040404",
"+  c gray2",
"@  c #060606",
"#  c #070707",
"$  c gray3",
"%  c #090909",
"&  c gray4",
"*  c #0B0B0B",
"=  c #0C0C0C",
"-  c gray5",
";  c #0E0E0E",
":  c gray6",
">  c #101010",
",  c #111111",
"<  c gray7",
"1  c #131313",
"2  c gray8",
"3  c #151515",
"4  c #161616",
"5  c gray9",
"6  c #181818",
"7  c #191919",
"8  c gray10",
"9  c #1B1B1B",
"0  c gray11",
"q  c #1D1D1D",
"w  c #1E1E1E",
"e  c gray12",
"r  c #202020",
"t  c gray13",
"y  c #222222",
"u  c #232323",
"i  c gray14",
"p  c #252525",
"a  c gray15",
"s  c #272727",
"d  c #282828",
"f  c gray16",
"g  c #2A2A2A",
"h  c gray17",
"j  c #2C2C2C",
"k  c #2D2D2D",
"l  c gray18",
"z  c #2F2F2F",
"x  c gray19",
"c  c #313131",
"v  c #323232",
"b  c gray20",
"n  c #343434",
"m  c #353535",
"M  c gray21",
"N  c #373737",
"B  c gray22",
"V  c #393939",
"C  c #3A3A3A",
"Z  c gray23",
"A  c #3C3C3C",
"S  c gray24",
"D  c #3E3E3E",
"F  c #3F3F3F",
"G  c gray25",
"H  c #414141",
"J  c gray26",
"K  c #434343",
"L  c #444444",
"P  c gray27",
"I  c #464646",
"U  c gray28",
"Y  c #484848",
"T  c #494949",
"R  c gray29",
"E  c #4B4B4B",
"W  c #4C4C4C",
"Q  c gray30",
"!  c #4E4E4E",
"~  c gray31",
"^  c #505050",
"/  c #515151",
"(  c gray32",
")  c #535353",
"_  c gray33",
"`  c #555555",
"'  c #565656",
"]  c gray34",
"[  c #585858",
"{  c gray35",
"}  c #5A5A5A",
"|  c #5B5B5B",
" . c gray36",
".. c #5D5D5D",
"X. c gray37",
"o. c #5F5F5F",
"O. c #606060",
"+. c gray38",
"@. c #626262",
"#. c gray39",
"$. c #646464",
"%. c #656565",
"&. c gray40",
"*. c #676767",
"=. c #686868",
"-. c DimGray",
";. c #6A6A6A",
":. c gray42",
">. c #6C6C6C",
",. c #6D6D6D",
"<. c gray43",
"1. c #6F6F6F",
"2. c gray44",
"3. c #717171",
"4. c #727272",
"5. c gray45",
"6. c #747474",
"7. c gray46",
"8. c #767676",
"9. c #777777",
"0. c gray47",
"q. c #797979",
"w. c gray48",
"e. c #7B7B7B",
"r. c #7C7C7C",
"t. c gray49",
"y. c #7E7E7E",
"u. c gray50",
"i. c #808080",
"p. c #818181",
"a. c gray51",
"s. c #838383",
"d. c #848484",
"f. c gray52",
"g. c #868686",
"h. c gray53",
"j. c #888888",
"k. c #898989",
"l. c gray54",
"z. c #8B8B8B",
"x. c gray55",
"c. c #8D8D8D",
"v. c #8E8E8E",
"b. c gray56",
"n. c #909090",
"m. c gray57",
"M. c #929292",
"N. c #939393",
"B. c gray58",
"V. c #959595",
"C. c gray59",
"Z. c #979797",
"A. c #989898",
"S. c gray60",
"D. c #9A9A9A",
"F. c #9B9B9B",
"G. c gray61",
"H. c #9D9D9D",
"J. c gray62",
"K. c #9F9F9F",
"L. c #A0A0A0",
"P. c gray63",
"I. c #A2A2A2",
"U. c gray64",
"Y. c #A4A4A4",
"T. c #A5A5A5",
"R. c gray65",
"E. c #A7A7A7",
"W. c gray66",
"Q. c #A9A9A9",
"!. c #AAAAAA",
"~. c gray67",
"^. c #ACACAC",
"/. c gray68",
"(. c #AEAEAE",
"). c #AFAFAF",
"_. c gray69",
"`. c #B1B1B1",
"'. c #B2B2B2",
"]. c gray70",
"[. c #B4B4B4",
"{. c gray71",
"}. c #B6B6B6",
"|. c #B7B7B7",
" X c gray72",
".X c #B9B9B9",
"XX c gray73",
"oX c #BBBBBB",
"OX c #BCBCBC",
"+X c gray74",
"@X c gray",
"#X c gray75",
"$X c #C0C0C0",
"%X c #C1C1C1",
"&X c gray76",
"*X c #C3C3C3",
"=X c gray77",
"-X c #C5C5C5",
";X c #C6C6C6",
":X c gray78",
">X c #C8C8C8",
",X c gray79",
"<X c #CACACA",
"1X c #CBCBCB",
"2X c gray80",
"3X c #CDCDCD",
"4X c #CECECE",
"5X c gray81",
"6X c #D0D0D0",
"7X c gray82",
"8X c #D2D2D2",
"9X c LightGray",
"0X c gray83",
"qX c #D5D5D5",
"wX c gray84",
"eX c #D7D7D7",
"rX c #D8D8D8",
"tX c gray85",
"yX c #DADADA",
"uX c gray86",
"iX c gainsboro",
"pX c #DDDDDD",
"aX c gray87",
"sX c #DFDFDF",
"dX c gray88",
"fX c #E1E1E1",
"gX c #E2E2E2",
"hX c gray89",
"jX c #E4E4E4",
"kX c gray90",
"lX c #E6E6E6",
"zX c #E7E7E7",
"xX c gray91",
"cX c #E9E9E9",
"vX c #EAEAEA",
"bX c gray92",
"nX c #ECECEC",
"mX c gray93",
"MX c #EEEEEE",
"NX c #EFEFEF",
"BX c gray94",
"VX c #F1F1F1",
"CX c gray95",
"ZX c #F3F3F3",
"AX c #F4F4F4",
"SX c gray96",
"DX c #F6F6F6",
"FX c gray97",
"GX c #F8F8F8",
"HX c #F9F9F9",
"JX c gray98",
"KX c #FBFBFB",
"LX c gray99",
"PX c #FDFDFD",
"IX c #FEFEFE",
"UX c white",
/* pixels */
"H H H J H %.n.x.c.b.c.x.n.[ Y 0.p.i.y.q.$.N C J J K G G F F F G ",
"w.0.8.-.T B.8X;X>X,X,X-XOX` ;.}.I.L.J.G.9.v  .W.!.Q.A.p.5.6.5.7.",
" X{.R.q.F C.@XW.R.R.T.U.n.S [ G.A.G.K.z.} z =.<X}.{.+X[.).).)./.",
"Q.K.B.@.n C. XS.I.Z.m.A.h.D D 8.A.n.v.r.G k -.$XG.b.M.M.V.D.Z.Z.",
"Z.m.5.I h a.XXJ.C.M.b.Z.u.H v W Q F S V d z o.+XG.b.N.n.B.M.C.c.",
"X.{ J l g >.}.C.g.n.C.n.a.R x L K [ *.,.@.U [ G.f.r.7.-.X.} { [ ",
"h h g h m [ ].D.c.m.m.b.s.U g &.`.#X{.`.d.D J ] W L F M c j g g ",
"R K J J A W S.I.C.B.v.Z.q.E d t.;XG.V.B.4.c N E P m G L I P I L ",
"E.U.I.C.' C t.R.V.N.v.n.w.` a t..XZ.C.C.,.x $..X9.[ I.).(.(.(.(.",
"T.P.U.x./ N ..v.g.u.5.;. .G y <.D.8.[ ^ I z k.{.} 3.;X]./.(.R.~.",
"G.C.A.a.U M E Y G B v j f u y Q } G l z s c K.(.{ 1._.D.Z.V.h.b.",
"M.j.B.y.K m y.h.3.#.Y m X.t.s.Z.^.(.Q.c.G } @XP.( *.~.S.A.B.g.n.",
"M.M.c.-.A G ].Q.E.P.;.Q W.>X{.).'.[.`.l.Z :.$XV.E ) h.q.6.0.a.z.",
"{ ( R n h L ~.J.K.m.E E ].W.Z.B.b.M.C.6.m :.@XN.I Z m M M N F W ",
"L ( @.@.+.' ^.M.D.l.T H `.U.m.l.g.c.B.7.n :.oXZ.I T Q R H Z n c ",
"j.+X&X XI.| ^.A.n.V.` C T.].M.v.f.b.V.>.x :.[.m.K w.E.W.B.b.8.E ",
"I.].H.J.N.@.^.G.H.V.| z k.;XJ.m.c.j.B.+.x <.}.N.H h.U.L.U.T.p.Y ",
"Y.~.A.J.n.{ ).D.Z.Z.| j ,.*XL.m.m.V.n.) h 2.).a.F p.~.L.Z.G.w.J ",
"Y.).J.G.M.( ).S.C.m.X.s ! E.H.p.6.;.[ A l [ -.T D X.6.4.2.,.o.A ",
"Y.~.D.F.m.W K.I.S.m.X.p S | ' A k g d d c Y R ! ^ I C N N N N N ",
"Y.(.A.G.k.F m.T.v.M.X.a N  .O.X.@.&.%.*.,.q.b.G.J.J.H.G.D.S.e.U ",
"J.(.H.K.3.k v.E.M.v.O.k j B.;X3X3X:X<X,X5XwXrXqX4X5X,X3X;X$X7.A ",
"n.R.A.p.X.x h.U.A.m.O.z p M.>X)./.^._.'.).`.!.A.Z.L.V.H.I.F.+.B ",
"2.f.4.| D v 7.A.n.s.X.z w t.2XF.M.m.n.V.N.H.B.n.M.n.b.v.V.m.+.M ",
"R S N Z v C ! _ / ! P j q -.$XS.V.M.M.b.v.M.V.m.M.n.b.x.n.a...c ",
"..r.r.;.E W S d a a p s a ^ -.' _ ] 7.j.s.t.i.y.d.f.g.d.p.i.[ c ",
"a.&XoX-XoX!.x.u.0.6.,.*.O.X.` R H C B L U I L L J F F F F F m V ",
"g.+XP.K.R.(.|.|.{..X].`.'.'.[.R.@.U U E F n n n v x x x x v S R ",
"s._.Z.z.M.M.V.x.g.z.l.m.A.F.W.c.U A a.}.E.v.-.` p.l.l.h.a.7.@.~ ",
"1.=.^ ~ ( ( ( ^ / ~ / ( ( / ) Q V g t.~.W.P.y.e.'.~.^.E.W.Y.f.H ",
"E N j g g f d d g s d d s d d s g g T ) W I P -.q.4.5.4.4.4.` A ",
"Y P G F F D C V V B V V B V V B V V H U S M M G A x x x x x x C "
};
