/* XPM */
static char *result[] = {
/* columns rows colors chars-per-pixel */
"27 27 46 1 ",
"  c #1E65FF",
". c #1E66FF",
"X c #1E67FF",
"o c #1F68FF",
"O c #1F6AFF",
"+ c #206CFF",
"@ c #206DFF",
"# c #216DFF",
"$ c #216FFF",
"% c #2272FF",
"& c #2275FF",
"* c #2376FF",
"= c #2476FF",
"- c #257AFF",
"; c #267BFF",
": c #267DFF",
"> c #267EFF",
", c #2780FF",
"< c #2781FF",
"1 c #2785FF",
"2 c #2786FF",
"3 c #2882FF",
"4 c #2984FF",
"5 c #2985FF",
"6 c #2886FF",
"7 c #2986FF",
"8 c #2A87FF",
"9 c #2988FF",
"0 c #2A8AFF",
"q c #2A8BFF",
"w c #2B8CFF",
"e c #2B8DFF",
"r c #2D8FFF",
"t c #2F91FF",
"y c #2E92FF",
"u c #2F92FF",
"i c #3095FF",
"p c #3196FF",
"a c #3197FF",
"s c #3298FF",
"d c #339AFF",
"f c #349CFF",
"g c #359DFF",
"h c #359EFF",
"j c #359FFF",
"k c None",
/* pixels */
"kkkkkkkkkkkkkkkkkkkkkkkkkkk",
"kkkkkkkkkkkkkkkkkkkkkkkkkkk",
"kkkkkkkkkkkkkkkkkkkkkkkkkkk",
"kkkkkkkkkkkkkukkkkkkkkkkkkk",
"kkkkkkkkkkkkju5kkkkkkkkkkkk",
"kkkkkkkkkkkkht5kkkkkkkkkkkk",
"kkkkkkkkkkkhht55kkkkkkkkkkk",
"kkkkkkkkkkkhhu55kkkkkkkkkkk",
"kkkkkkkkkkhhhu555kkkkkkkkkk",
"kkkkkkkkkkhhhu555kkkkkkkkkk",
"kkkkkkkkkhhhhu5555kkkkkkkkk",
"kkkkkkkkkhhhhu5555kkkkkkkkk",
"kkkkkkkkhhhhhu55555kkkkkkkk",
"kkkkkkkkhhhhhu55555kkkkkkkk",
"kkkkkkkhhhhhhu555555kkkkkkk",
"kkkkkkkhhhhhf8355555kkkkkkk",
"kkkkkkhhhhhde*$<55555kkkkkk",
"kkkkkkhhhhs01& +>5555kkkkkk",
"kkkkkhhhhi911*..O-5555kkkkk",
"kkkkkhhgy6112kX..o=455kkkkk",
"kkkkhhfr111kkkkkX.X%355kkkk",
"kkkkhdw11kkkkkkkkkX.$,7kkkk",
"kkkha01kkkkkkkkkkkkk.@:5kkk",
"kkkpqkkkkkkkkkkkkkkkkk#;kkk",
"kkkkkkkkkkkkkkkkkkkkkkkkkkk",
"kkkkkkkkkkkkkkkkkkkkkkkkkkk",
"kkkkkkkkkkkkkkkkkkkkkkkkkkk"
};
